<?xml version="1.0" encoding="utf-8"?>
<!-- Generator: Adobe Illustrator 26.2.1, SVG Export Plug-In . SVG Version: 6.00 Build 0)  -->
<svg version="1.1" id="Layer_1" xmlns="http://www.w3.org/2000/svg" xmlns:xlink="http://www.w3.org/1999/xlink" x="0px" y="0px"
	 viewBox="0 0 356.2 175.1" style="enable-background:new 0 0 356.2 175.1;" xml:space="preserve">
<g>
	<path d="M107.9,173.7v-8.4c3-1.6,5.6-3.2,7.8-4.8c2.2-1.6,4-3.2,5.5-4.7c1.5-1.5,2.5-3,3.3-4.4c0.7-1.4,1.1-2.6,1.1-3.8
		c0-1-0.2-1.8-0.7-2.5c-0.5-0.7-1.3-1.1-2.5-1.1c-1.4,0-2.3,0.6-3,1.7c-0.6,1.1-0.9,2.9-0.8,5.3l-11.9-2.9c-0.1-3.3,0.6-6.1,2.1-8.2
		c1.5-2.2,3.5-3.7,6.1-4.8c2.6-1,5.4-1.6,8.5-1.6c3,0,5.5,0.4,7.6,1.2c2.1,0.8,3.7,1.9,4.9,3.2c1.2,1.3,2.1,2.7,2.7,4.2
		c0.5,1.5,0.8,2.9,0.8,4.3c0,2.6-0.7,5-2.1,7.1c-1.4,2.1-3.2,4-5.5,5.7c-2.3,1.7-4.9,3.2-7.7,4.5v0.1c0.8-0.1,1.8-0.1,2.8-0.2
		c1-0.1,2.1-0.1,3.2-0.1c1.1,0,2.3,0,3.4,0h6.2v10.1H107.9L107.9,173.7z"/>
	<path d="M160.6,163.8c1,0,1.8-0.3,2.4-0.8c0.6-0.6,0.9-1.6,1.2-3c0.2-1.4,0.3-3.4,0.3-6c0-2.6-0.1-4.6-0.3-6
		c-0.2-1.4-0.6-2.4-1.2-3c-0.6-0.6-1.4-0.8-2.4-0.8c-1,0-1.8,0.3-2.4,0.8c-0.6,0.6-1,1.6-1.2,3c-0.2,1.4-0.3,3.4-0.3,6
		c0,2.6,0.1,4.6,0.3,6c0.2,1.4,0.6,2.4,1.2,3C158.8,163.5,159.6,163.8,160.6,163.8L160.6,163.8z M160.6,174.3
		c-6,0-10.4-1.7-13.2-5.1c-2.8-3.4-4.3-8.5-4.3-15.2c0-6.8,1.4-11.8,4.3-15.2c2.8-3.4,7.3-5.1,13.2-5.1c6,0,10.4,1.7,13.2,5.1
		c2.8,3.4,4.3,8.5,4.3,15.2c0,6.8-1.4,11.8-4.3,15.2C171,172.6,166.6,174.3,160.6,174.3L160.6,174.3z"/>
	<path d="M183.3,173.7v-8.4c3-1.6,5.6-3.2,7.8-4.8c2.2-1.6,4-3.2,5.5-4.7c1.5-1.5,2.5-3,3.3-4.4c0.7-1.4,1.1-2.6,1.1-3.8
		c0-1-0.2-1.8-0.7-2.5c-0.5-0.7-1.3-1.1-2.5-1.1c-1.4,0-2.3,0.6-3,1.7c-0.6,1.1-0.9,2.9-0.8,5.3l-11.9-2.9c-0.1-3.3,0.6-6.1,2.1-8.2
		c1.5-2.2,3.5-3.7,6.1-4.8c2.6-1,5.4-1.6,8.5-1.6c3,0,5.5,0.4,7.6,1.2c2.1,0.8,3.7,1.9,4.9,3.2c1.2,1.3,2.1,2.7,2.7,4.2
		c0.5,1.5,0.8,2.9,0.8,4.3c0,2.6-0.7,5-2.1,7.1c-1.4,2.1-3.2,4-5.5,5.7c-2.3,1.7-4.9,3.2-7.7,4.5v0.1c0.8-0.1,1.8-0.1,2.8-0.2
		c1-0.1,2.1-0.1,3.2-0.1c1.1,0,2.3,0,3.4,0h6.1v10.1H183.3L183.3,173.7z"/>
	<path d="M233.4,174.3c-3.4,0-6.5-0.6-9.2-1.8c-2.8-1.2-5.2-3.3-7.3-6.4l11.9-5.9c0.3,1.2,0.8,2.2,1.6,3c0.7,0.8,1.8,1.1,3.3,1.1
		c0.9,0,1.6-0.1,2.2-0.4c0.6-0.3,1.1-0.7,1.4-1.3c0.3-0.6,0.5-1.3,0.5-2.2c0-0.8-0.2-1.4-0.5-1.9c-0.3-0.5-0.8-0.9-1.4-1.2
		c-0.6-0.3-1.5-0.4-2.4-0.4c-0.7,0-1.4,0.1-1.9,0.2c-0.6,0.1-1.1,0.3-1.5,0.5c-0.4,0.2-0.9,0.4-1.3,0.7l-10.2-1.9l2.6-22.2h26.6
		v10.2H231l-0.7,4.9l-0.3,1.3h0.1c0.7-0.9,1.8-1.5,3.1-1.9c1.4-0.4,2.8-0.6,4.4-0.6c2.7,0,4.9,0.5,6.7,1.5c1.8,1,3.2,2.4,4.1,4.1
		c1,1.7,1.4,3.7,1.4,5.9c0,2.7-0.5,4.9-1.4,6.8c-0.9,1.9-2.2,3.4-3.8,4.5c-1.6,1.2-3.4,2-5.3,2.5C237.5,174,235.5,174.3,233.4,174.3
		L233.4,174.3z"/>
	<path d="M69.8,24.1l12.2,19.1H67l-9.1-17.1L69.8,24.1L69.8,24.1z M61.6,21.2c1.5,0,2.5-0.3,3.3-0.8c0.7-0.5,1.1-1.5,1.1-2.8
		c0-1.3-0.4-2.2-1.1-2.8c-0.7-0.6-1.8-0.8-3.3-0.8h-5.3v7.2H61.6L61.6,21.2z M64,4.2c5.1,0,9,1.1,11.7,3.4c2.7,2.3,4.1,5.3,4.1,9
		c0,4.3-1.3,7.5-4,9.7c-2.7,2.2-6.5,3.2-11.6,3.2l-1.4,0.7h-6.5v12.9H42.8V4.2H64L64,4.2z"/>
	<path d="M99.1,22.2c-0.6,0-1.1,0.2-1.5,0.5c-0.4,0.3-0.8,1-1,1.9c-0.2,0.9-0.3,2.2-0.3,3.8c0,1.7,0.1,2.9,0.3,3.8
		c0.2,0.9,0.5,1.5,1,1.9c0.4,0.4,0.9,0.5,1.5,0.5c0.6,0,1.2-0.2,1.6-0.5c0.4-0.4,0.7-1,0.9-1.9c0.2-0.9,0.3-2.2,0.3-3.8
		c0-1.7-0.1-2.9-0.3-3.8c-0.2-0.9-0.5-1.5-0.9-1.9C100.3,22.3,99.8,22.2,99.1,22.2L99.1,22.2z M99.1,13c3.3,0,6.2,0.6,8.6,1.8
		c2.5,1.2,4.4,2.9,5.8,5.2c1.4,2.3,2.1,5.1,2.1,8.3c0,3.2-0.7,6-2.1,8.3c-1.4,2.3-3.3,4.1-5.8,5.3c-2.5,1.2-5.3,1.8-8.6,1.8
		c-3.3,0-6.1-0.6-8.6-1.8c-2.5-1.2-4.4-3-5.8-5.3c-1.4-2.3-2.1-5.1-2.1-8.3c0-3.3,0.7-6,2.1-8.3c1.4-2.3,3.3-4,5.8-5.2
		C93,13.6,95.9,13,99.1,13L99.1,13z"/>
	<path d="M134.6,24.7c0-0.9-0.2-1.6-0.6-2.1c-0.4-0.5-1.1-0.8-1.9-0.8c-0.8,0-1.5,0.2-2.1,0.7c-0.6,0.5-0.9,1.4-0.9,2.8l-11.4-1.7
		c0.3-3.3,1.7-5.9,4.2-7.8c2.6-1.9,6.3-2.9,11.2-2.9c3.4,0,6.2,0.5,8.5,1.4c2.2,0.9,3.9,2.3,5,4c1.1,1.7,1.6,3.7,1.6,5.9v9.1
		c0,1.6,0.8,2.4,2.3,2.4c0.4,0,0.8-0.1,1-0.2l-0.6,7c-1.5,0.7-3.2,1.1-5.3,1.1c-1.8,0-3.5-0.3-4.9-0.8c-1.4-0.5-2.6-1.3-3.4-2.4
		c-0.8-1.1-1.2-2.5-1.2-4.2v-0.6h1.3c0,1.5-0.5,2.8-1.4,4c-0.9,1.2-2.2,2.2-3.7,2.9c-1.5,0.7-3.3,1.1-5.3,1.1
		c-2.1,0-3.8-0.3-5.3-0.9c-1.4-0.6-2.5-1.5-3.3-2.7c-0.7-1.2-1.1-2.6-1.1-4.2c0-2.2,0.7-3.9,2.1-5.3c1.4-1.4,3.4-2.3,6-2.8l10.3-2.1
		l-0.1,4.8l-3.2,0.8c-0.8,0.2-1.4,0.5-1.8,1c-0.4,0.5-0.5,1-0.5,1.7c0,0.6,0.2,1.1,0.6,1.5c0.4,0.4,0.9,0.6,1.7,0.6
		c0.3,0,0.6-0.1,0.9-0.2c0.3-0.1,0.5-0.3,0.8-0.5c0.2-0.2,0.4-0.5,0.5-0.9c0.1-0.3,0.2-0.7,0.2-1.2V24.7L134.6,24.7z"/>
	<path d="M168.9,34.2c0.6,0,1.2-0.2,1.6-0.6c0.4-0.4,0.7-1.1,1-1.9c0.2-0.9,0.4-2,0.4-3.3c0-1.3-0.1-2.3-0.3-3.2
		c-0.2-0.9-0.5-1.5-0.9-1.9c-0.4-0.4-1-0.6-1.7-0.6c-0.9,0-1.7,0.4-2.2,1.2c-0.6,0.8-0.8,2.3-0.8,4.6c0,2.3,0.3,3.9,0.8,4.7
		C167.2,33.8,168,34.2,168.9,34.2L168.9,34.2z M163.4,43.7c-2.4,0-4.4-0.6-6.1-1.8c-1.7-1.2-3-2.9-3.8-5.2c-0.9-2.3-1.3-5-1.3-8.2
		c0-3.3,0.4-6.1,1.3-8.4c0.9-2.3,2.2-4.1,3.9-5.3c1.7-1.2,3.7-1.8,6.1-1.8c2.9,0,5.1,0.9,6.6,2.8c1.5,1.9,2.5,4.2,2.9,7.1l-1.2,1.8
		V1.8h13.6v41.3h-12.2l-0.8-11.9l1.5,1.7c-0.2,2.1-0.8,3.9-1.7,5.6c-0.9,1.6-2.1,2.9-3.5,3.8C167.2,43.2,165.4,43.7,163.4,43.7
		L163.4,43.7z"/>
	<path d="M190,43.1V13.6h12.2l0.3,6.4c0.9-2.2,2.2-4,3.9-5.2c1.7-1.2,3.9-1.8,6.4-1.8c2.2,0,4.1,0.5,5.6,1.5c1.5,1,2.5,2.5,3.2,4.4
		c0.6-1.3,1.4-2.3,2.3-3.2c0.9-0.9,2-1.6,3.2-2c1.2-0.5,2.6-0.7,4.2-0.7c2,0,3.6,0.4,5,1.2c1.4,0.8,2.4,1.9,3.2,3.4
		c0.7,1.5,1.1,3.3,1.1,5.4v20.2h-13.6V26.5c0-1.3-0.2-2.2-0.5-2.7c-0.3-0.5-0.9-0.7-1.6-0.7c-0.6,0-1.2,0.2-1.6,0.5
		c-0.4,0.3-0.7,0.8-0.9,1.5c-0.2,0.7-0.3,1.6-0.3,2.6v15.5h-13.6V26.5c0-1.3-0.2-2.2-0.5-2.7c-0.3-0.5-0.9-0.7-1.6-0.7
		c-0.6,0-1.2,0.2-1.6,0.5c-0.4,0.3-0.7,0.8-0.9,1.5c-0.2,0.7-0.3,1.6-0.3,2.6v15.5H190L190,43.1z"/>
	<path d="M261,24.7c0-0.9-0.2-1.6-0.6-2.1c-0.4-0.5-1.1-0.8-1.9-0.8c-0.8,0-1.5,0.2-2.1,0.7c-0.6,0.5-0.9,1.4-0.9,2.8L244,23.7
		c0.3-3.3,1.7-5.9,4.2-7.8c2.6-1.9,6.3-2.9,11.2-2.9c3.4,0,6.2,0.5,8.5,1.4c2.2,0.9,3.9,2.3,5,4c1.1,1.7,1.6,3.7,1.6,5.9v9.1
		c0,1.6,0.8,2.4,2.3,2.4c0.4,0,0.8-0.1,1-0.2l-0.6,7c-1.5,0.7-3.2,1.1-5.3,1.1c-1.8,0-3.5-0.3-4.9-0.8c-1.4-0.5-2.6-1.3-3.4-2.4
		c-0.8-1.1-1.2-2.5-1.2-4.2v-0.6h1.3c0,1.5-0.5,2.8-1.4,4c-0.9,1.2-2.2,2.2-3.7,2.9c-1.5,0.7-3.3,1.1-5.3,1.1
		c-2.1,0-3.8-0.3-5.3-0.9c-1.4-0.6-2.5-1.5-3.3-2.7c-0.7-1.2-1.1-2.6-1.1-4.2c0-2.2,0.7-3.9,2.1-5.3c1.4-1.4,3.4-2.3,6-2.8l10.3-2.1
		l-0.1,4.8l-3.2,0.8c-0.8,0.2-1.4,0.5-1.8,1c-0.4,0.5-0.5,1-0.5,1.7c0,0.6,0.2,1.1,0.6,1.5c0.4,0.4,0.9,0.6,1.7,0.6
		c0.3,0,0.6-0.1,0.9-0.2s0.6-0.3,0.8-0.5c0.2-0.2,0.4-0.5,0.5-0.9c0.1-0.3,0.2-0.7,0.2-1.2V24.7L261,24.7z"/>
	<path d="M296.2,34.1c0.9,0,1.7-0.4,2.2-1.2c0.6-0.8,0.8-2.3,0.8-4.6c0-2.3-0.3-3.9-0.8-4.7c-0.6-0.8-1.3-1.2-2.2-1.2
		c-0.6,0-1.1,0.2-1.5,0.6c-0.4,0.4-0.8,1-1,1.9c-0.2,0.8-0.4,2-0.4,3.3c0,1.3,0.1,2.3,0.3,3.2c0.2,0.9,0.5,1.5,0.9,1.9
		C295,33.9,295.5,34.1,296.2,34.1L296.2,34.1z M279.7,55.5V13.6h12.3l0.7,13l-1.5-1.5c0.1-2.3,0.6-4.4,1.5-6.2
		c0.9-1.8,2.1-3.2,3.6-4.3c1.5-1,3.3-1.6,5.4-1.6c2.4,0,4.5,0.6,6.2,1.8c1.7,1.2,2.9,2.9,3.8,5.2c0.9,2.2,1.3,5,1.3,8.2
		c0,3.3-0.4,6.1-1.3,8.4c-0.9,2.3-2.2,4.1-3.9,5.3c-1.7,1.2-3.7,1.8-6.1,1.8c-2.9,0-5.1-0.9-6.6-2.8c-1.5-1.9-2.5-4.2-2.9-7.1
		l1.2-1.8v23.4H279.7L279.7,55.5z"/>
	<polygon points="0.1,106.8 0.1,74.4 23.5,74.4 23.5,78.9 5.3,78.9 5.3,88.2 19.6,88.2 19.6,92.7 5.3,92.7 5.3,102.3 24.2,102.3 
		24.2,106.8 0.1,106.8 	"/>
	<path d="M33.7,71.2v28.7c0,1.2,0.2,2,0.6,2.5c0.4,0.5,1.1,0.7,2.1,0.7c0.6,0,1.1,0,1.5-0.1c0.4-0.1,0.9-0.2,1.5-0.5l-0.6,3.9
		c-0.6,0.3-1.2,0.5-1.9,0.6c-0.7,0.1-1.4,0.2-2.2,0.2c-2.2,0-3.8-0.6-4.8-1.7c-1-1.1-1.5-2.9-1.5-5.2V71.2H33.7L33.7,71.2z"/>
	<path d="M52.7,107.3c-2.5,0-4.6-0.5-6.5-1.5c-1.9-1-3.3-2.5-4.3-4.4c-1-1.9-1.5-4.2-1.5-6.8c0-2.6,0.5-4.9,1.5-6.8
		c1-1.9,2.5-3.4,4.3-4.4c1.8-1,3.9-1.5,6.2-1.5c2.4,0,4.4,0.5,6.1,1.5c1.7,1,2.9,2.3,3.8,4c0.9,1.7,1.3,3.6,1.3,5.8
		c0,0.6,0,1.1,0,1.7c0,0.5-0.1,1-0.1,1.4H43.7v-4h17.4l-2.6,0.8c0-2.2-0.6-3.9-1.7-5.1c-1.1-1.2-2.6-1.8-4.6-1.8
		c-1.4,0-2.6,0.3-3.7,1c-1,0.7-1.8,1.6-2.4,2.9c-0.6,1.3-0.8,2.9-0.8,4.7c0,1.8,0.3,3.4,0.9,4.7c0.6,1.3,1.4,2.2,2.5,2.9
		c1.1,0.7,2.4,1,3.8,1c1.6,0,3-0.3,4-0.9c1-0.6,1.8-1.5,2.4-2.6l4.2,2c-0.6,1.2-1.4,2.2-2.4,3.1c-1,0.9-2.2,1.5-3.6,2
		C55.9,107,54.4,107.3,52.7,107.3L52.7,107.3z"/>
	<path d="M81.2,90.5l10.9,16.3H86l-8.7-13.3L81.2,90.5L81.2,90.5z M91.5,82.3L80.5,93.4l-1.1,0.8l-7.7,8l0-6l13.6-14H91.5L91.5,82.3
		z M73.6,71.2v35.6h-5.2V71.2H73.6L73.6,71.2z"/>
	<path d="M102.1,75v24.4c0,1.2,0.3,2.1,1,2.6c0.6,0.6,1.5,0.8,2.6,0.8c0.9,0,1.7-0.1,2.3-0.4c0.7-0.3,1.3-0.7,1.8-1.2l1.2,3.8
		c-0.8,0.7-1.7,1.2-2.8,1.5c-1.1,0.4-2.3,0.6-3.7,0.6c-1.4,0-2.7-0.2-3.9-0.7c-1.2-0.5-2.1-1.2-2.7-2.2c-0.7-1-1-2.4-1-4V76.5
		L102.1,75L102.1,75z M110.6,82.3v4.1H92.2v-4.1H110.6L110.6,82.3z"/>
	<path d="M113.8,106.8V82.3h4.5l0.5,4.4c0.7-1.6,1.6-2.8,2.9-3.7c1.3-0.8,2.9-1.3,4.8-1.3c0.5,0,1,0,1.5,0.1
		c0.5,0.1,0.9,0.2,1.2,0.4l-0.7,4.6c-0.4-0.1-0.8-0.2-1.2-0.3c-0.4-0.1-1-0.1-1.8-0.1c-1,0-2,0.3-3,0.8c-1,0.5-1.8,1.3-2.4,2.4
		c-0.6,1.1-1,2.5-1,4.1v13H113.8L113.8,106.8z"/>
	<path d="M142.1,85.9c-1.5,0-2.7,0.3-3.8,1c-1,0.7-1.8,1.6-2.4,2.9c-0.6,1.3-0.8,2.8-0.8,4.7c0,1.8,0.3,3.4,0.8,4.7
		c0.6,1.3,1.3,2.3,2.4,2.9c1,0.7,2.3,1,3.8,1c1.5,0,2.7-0.3,3.7-1c1-0.7,1.8-1.7,2.4-2.9c0.6-1.3,0.8-2.9,0.8-4.7
		c0-1.9-0.3-3.4-0.8-4.7c-0.6-1.3-1.3-2.2-2.4-2.9C144.9,86.2,143.6,85.9,142.1,85.9L142.1,85.9z M142.1,81.8c2.4,0,4.5,0.5,6.3,1.5
		c1.8,1,3.3,2.5,4.3,4.4c1,1.9,1.5,4.2,1.5,6.8c0,2.6-0.5,4.9-1.5,6.8c-1,1.9-2.5,3.4-4.3,4.4c-1.8,1-3.9,1.5-6.3,1.5
		c-2.4,0-4.5-0.5-6.3-1.5c-1.8-1-3.3-2.5-4.3-4.4c-1-1.9-1.6-4.2-1.6-6.8c0-2.6,0.5-4.9,1.6-6.8c1-1.9,2.5-3.4,4.3-4.4
		C137.6,82.3,139.8,81.8,142.1,81.8L142.1,81.8z"/>
	<path d="M159,106.8V82.3h4.7l0.2,4.1c0.8-1.6,2-2.7,3.4-3.5c1.4-0.8,2.9-1.1,4.5-1.1c1.8,0,3.4,0.4,4.9,1.2c1.5,0.8,2.6,2,3.4,3.6
		c0.5-1.1,1.2-2,2.2-2.7c0.9-0.7,1.9-1.3,3-1.6c1.1-0.3,2.2-0.5,3.3-0.5c1.6,0,3,0.3,4.4,1c1.4,0.7,2.5,1.7,3.3,3
		c0.9,1.3,1.3,3.1,1.3,5.1v15.9h-5.2V91.7c0-2-0.5-3.4-1.4-4.3c-0.9-0.9-2.2-1.3-3.6-1.3c-1.1,0-2.2,0.3-3.2,0.8
		c-1,0.6-1.7,1.4-2.3,2.5c-0.6,1.1-0.9,2.4-0.9,4v13.3h-5.2V91.7c0-2-0.5-3.4-1.4-4.3c-0.9-0.9-2.2-1.3-3.6-1.3c-1,0-2,0.3-2.9,0.8
		c-1,0.5-1.8,1.3-2.5,2.5c-0.7,1.1-1,2.6-1,4.4v13H159L159,106.8z"/>
	<path d="M214.2,85.9c-1.5,0-2.7,0.3-3.8,1c-1,0.7-1.8,1.6-2.4,2.9c-0.6,1.3-0.8,2.8-0.8,4.7c0,1.8,0.3,3.4,0.8,4.7
		c0.6,1.3,1.4,2.3,2.4,2.9c1,0.7,2.3,1,3.8,1c1.5,0,2.7-0.3,3.7-1c1-0.7,1.8-1.7,2.4-2.9c0.6-1.3,0.8-2.9,0.8-4.7
		c0-1.9-0.3-3.4-0.8-4.7c-0.6-1.3-1.3-2.2-2.4-2.9C216.9,86.2,215.7,85.9,214.2,85.9L214.2,85.9z M214.2,81.8c2.4,0,4.5,0.5,6.3,1.5
		c1.8,1,3.3,2.5,4.3,4.4c1,1.9,1.5,4.2,1.5,6.8c0,2.6-0.5,4.9-1.5,6.8c-1,1.9-2.5,3.4-4.3,4.4c-1.8,1-3.9,1.5-6.3,1.5
		c-2.4,0-4.5-0.5-6.3-1.5c-1.8-1-3.3-2.5-4.3-4.4c-1-1.9-1.6-4.2-1.6-6.8c0-2.6,0.5-4.9,1.6-6.8c1-1.9,2.5-3.4,4.3-4.4
		C209.7,82.3,211.8,81.8,214.2,81.8L214.2,81.8z"/>
	<path d="M243,103.1c2.1,0,3.8-0.8,5-2.3c1.2-1.5,1.8-3.6,1.8-6.3c0-2.6-0.6-4.7-1.8-6.2c-1.2-1.5-2.8-2.3-5-2.3
		c-1.4,0-2.6,0.4-3.6,1.1c-1,0.7-1.8,1.7-2.4,3c-0.6,1.3-0.9,2.8-0.9,4.6c0,1.7,0.3,3.2,0.8,4.5c0.6,1.3,1.3,2.2,2.4,2.9
		C240.5,102.7,241.7,103.1,243,103.1L243,103.1z M244.2,107.3c-1.4,0-2.8-0.3-3.9-0.8c-1.2-0.6-2.2-1.3-3-2.3
		c-0.8-1-1.4-2.1-1.8-3.4l0.6-0.8l-0.4,6.9H231V71.2h5.2v17.2l-0.6-0.8c0.6-1.7,1.7-3.1,3.2-4.2c1.5-1.1,3.3-1.6,5.4-1.6
		c2,0,3.8,0.5,5.4,1.5c1.7,1,3,2.5,3.9,4.4c0.9,1.9,1.4,4.2,1.4,6.9c0,2.6-0.5,4.9-1.4,6.8c-1,1.9-2.3,3.4-3.9,4.4
		C248,106.8,246.2,107.3,244.2,107.3L244.2,107.3z"/>
	<path d="M265.1,82.3v24.5h-5.2V82.3H265.1L265.1,82.3z M262.5,78.1c-1.1,0-2-0.3-2.6-0.9c-0.6-0.6-0.9-1.4-0.9-2.4
		c0-1,0.3-1.8,0.9-2.4c0.6-0.6,1.5-0.8,2.6-0.8c1.1,0,2,0.3,2.6,0.8c0.6,0.6,0.9,1.4,0.9,2.4c0,1-0.3,1.9-0.9,2.4
		C264.4,77.9,263.6,78.1,262.5,78.1L262.5,78.1z"/>
	<path d="M276.4,71.2v28.7c0,1.2,0.2,2,0.6,2.5c0.4,0.5,1.1,0.7,2.1,0.7c0.6,0,1.1,0,1.5-0.1c0.4-0.1,0.9-0.2,1.5-0.5l-0.6,3.9
		c-0.6,0.3-1.2,0.5-1.9,0.6c-0.7,0.1-1.4,0.2-2.2,0.2c-2.2,0-3.8-0.6-4.8-1.7c-1-1.1-1.5-2.9-1.5-5.2V71.2H276.4L276.4,71.2z"/>
	<path d="M289.9,82.3v24.5h-5.2V82.3H289.9L289.9,82.3z M287.3,78.1c-1.1,0-2-0.3-2.6-0.9c-0.6-0.6-0.9-1.4-0.9-2.4
		c0-1,0.3-1.8,0.9-2.4c0.6-0.6,1.5-0.8,2.6-0.8c1.1,0,2,0.3,2.6,0.8c0.6,0.6,0.9,1.4,0.9,2.4c0,1-0.3,1.9-0.9,2.4
		C289.3,77.9,288.4,78.1,287.3,78.1L287.3,78.1z"/>
	<path d="M303.3,75v24.4c0,1.2,0.3,2.1,1,2.6c0.6,0.6,1.5,0.8,2.6,0.8c0.9,0,1.7-0.1,2.3-0.4c0.7-0.3,1.3-0.7,1.8-1.2l1.2,3.8
		c-0.8,0.7-1.7,1.2-2.8,1.5c-1.1,0.4-2.3,0.6-3.7,0.6c-1.4,0-2.7-0.2-3.9-0.7c-1.2-0.5-2.1-1.2-2.7-2.2c-0.7-1-1-2.4-1-4V76.5
		L303.3,75L303.3,75z M311.7,82.3v4.1h-18.4v-4.1H311.7L311.7,82.3z"/>
	<path d="M329.5,72.4c1,0,1.8,0.3,2.3,0.8c0.6,0.6,0.9,1.3,0.9,2.3c0,0.9-0.3,1.7-0.9,2.2c-0.6,0.6-1.3,0.9-2.3,0.9
		c-1,0-1.8-0.3-2.3-0.9c-0.6-0.6-0.9-1.3-0.9-2.2c0-0.9,0.3-1.7,0.9-2.3C327.8,72.7,328.5,72.4,329.5,72.4L329.5,72.4z M319.6,72.4
		c1,0,1.8,0.3,2.3,0.8c0.6,0.6,0.9,1.3,0.9,2.3c0,0.9-0.3,1.7-0.9,2.2c-0.6,0.6-1.3,0.9-2.3,0.9c-0.9,0-1.7-0.3-2.3-0.9
		c-0.6-0.6-0.9-1.3-0.9-2.2c0-0.9,0.3-1.7,0.9-2.3C317.9,72.7,318.7,72.4,319.6,72.4L319.6,72.4z M329.3,91c0-1.6-0.5-2.9-1.4-3.8
		c-0.9-0.9-2.1-1.3-3.7-1.3c-1.5,0-2.7,0.3-3.8,1c-1,0.7-1.8,1.8-2.3,3.3l-4.4-1.9c0.6-2,1.8-3.6,3.7-4.8c1.8-1.2,4.2-1.8,7-1.8
		c2,0,3.7,0.3,5.2,1c1.5,0.6,2.7,1.6,3.6,2.9c0.9,1.3,1.3,2.9,1.3,4.9v10.9c0,1.2,0.6,1.8,1.8,1.8c0.6,0,1.2-0.1,1.7-0.2l-0.3,3.6
		c-0.8,0.4-1.7,0.5-2.8,0.5c-1,0-2-0.2-2.8-0.6c-0.8-0.4-1.5-0.9-2-1.7c-0.5-0.8-0.7-1.7-0.7-2.9v-0.3l1.1,0
		c-0.3,1.3-0.9,2.3-1.8,3.2c-0.9,0.8-2,1.5-3.2,1.9c-1.2,0.4-2.4,0.6-3.7,0.6c-1.5,0-2.9-0.2-4.1-0.7c-1.2-0.5-2.2-1.2-2.9-2.2
		c-0.7-1-1.1-2.2-1.1-3.7c0-1.8,0.6-3.3,1.8-4.5c1.2-1.2,2.9-2,5.1-2.4l9.5-1.9l0,3.7l-6.9,1.4c-1.4,0.3-2.4,0.6-3.1,1.1
		c-0.7,0.5-1,1.2-1,2.2c0,0.9,0.4,1.6,1.1,2.2c0.7,0.5,1.6,0.8,2.8,0.8c0.8,0,1.6-0.1,2.4-0.3c0.8-0.2,1.5-0.5,2.1-1
		c0.6-0.4,1.1-1,1.4-1.7c0.3-0.7,0.5-1.5,0.5-2.5V91L329.3,91z"/>
	<path d="M347.3,75v24.4c0,1.2,0.3,2.1,1,2.6c0.6,0.6,1.5,0.8,2.6,0.8c0.9,0,1.7-0.1,2.3-0.4c0.7-0.3,1.3-0.7,1.8-1.2l1.2,3.8
		c-0.8,0.7-1.7,1.2-2.8,1.5c-1.1,0.4-2.3,0.6-3.7,0.6c-1.4,0-2.7-0.2-3.9-0.7c-1.2-0.5-2.1-1.2-2.7-2.2c-0.7-1-1-2.4-1-4V76.5
		L347.3,75L347.3,75z M355.7,82.3v4.1h-18.4v-4.1H355.7L355.7,82.3z"/>
</g>
</svg>
